<?xml version="1.0" encoding="UTF-8"?>
<svg version="1.1" xmlns="http://www.w3.org/2000/svg" width="256" height="256">
<path d="M0 0 C0.91516231 -0.00155999 1.83032461 -0.00311998 2.77321911 -0.00472724 C5.85249103 -0.00872908 8.93171401 -0.00555073 12.01098633 -0.00241089 C14.21343006 -0.00376529 16.41587357 -0.00554544 18.61831665 -0.00772095 C24.60989052 -0.01229065 30.60144722 -0.01050761 36.59302139 -0.00734186 C42.85368141 -0.00481588 49.11433993 -0.00715647 55.375 -0.00872803 C66.56421378 -0.01066577 77.75342124 -0.00755169 88.94263351 -0.00246869 C99.09204927 0.00199918 109.24145359 0.0012232 119.39086914 -0.00338745 C131.17120792 -0.00873647 142.95154112 -0.01073231 154.73188114 -0.00777519 C160.96996905 -0.00621351 167.20804907 -0.00601568 173.44613647 -0.00931168 C179.3098161 -0.01219325 185.17347406 -0.01020938 191.03715134 -0.00441742 C193.19349507 -0.00309137 195.34984061 -0.00348133 197.50618362 -0.00568008 C200.44115904 -0.00839762 203.37606426 -0.00500297 206.31103516 0 C207.60221646 -0.00334608 207.60221646 -0.00334608 208.91948223 -0.00675976 C212.25203862 0.00431931 214.97159986 0.06567774 218.15551758 1.12698364 C216.73477434 4.37259665 215.01789076 6.48959954 212.48754883 8.95510864 C211.75858398 9.67311646 211.02961914 10.39112427 210.27856445 11.13088989 C209.51608398 11.87210083 208.75360352 12.61331177 207.96801758 13.37698364 C206.4720138 14.83795525 204.97850189 16.30148302 203.48754883 17.76760864 C202.824729 18.41246216 202.16190918 19.05731567 201.47900391 19.72171021 C199.58331824 21.68412432 197.80891727 23.67639754 196.03417969 25.74534607 C192.1230176 30.22609026 187.98344855 34.43984331 183.7734375 38.63845825 C182.96608154 39.44756653 182.15872559 40.2566748 181.3269043 41.09030151 C178.68242567 43.73914871 176.03434537 46.38436032 173.38598633 49.02932739 C171.53975555 50.87623225 169.69367319 52.7232855 167.84773254 54.57048035 C163.99224195 58.42778235 160.13466485 62.28298822 156.27587891 66.13699341 C151.81420819 70.59320027 147.35618246 75.05302934 142.8999874 79.51471132 C138.60352901 83.81624772 134.30427273 88.1149761 130.00380898 92.41250801 C128.17655267 94.23909594 126.35004247 96.06643055 124.52428246 97.89451408 C121.98213564 100.43918794 119.43682717 102.9806556 116.890625 105.52127075 C116.13270157 106.28121841 115.37477814 107.04116608 114.59388733 107.82414246 C113.90287933 108.51233063 113.21187134 109.2005188 112.49992371 109.90956116 C111.89878848 110.51031936 111.29765326 111.11107756 110.67830181 111.73004055 C107.85693162 114.31825595 105.14828662 114.64929542 101.35102749 114.59692478 C98.61832465 114.0119994 97.44681216 112.99757987 95.40235901 111.10792542 C94.70729815 110.46925978 94.01223728 109.83059414 93.29611397 109.172575 C89.7659646 105.79910251 86.27898694 102.38944781 82.83105469 98.93191528 C82.04133774 98.14395065 81.25162079 97.35598602 80.43797302 96.54414368 C77.85042949 93.96097057 75.26652499 91.37419317 72.68286133 88.78713989 C70.87275032 86.97770331 69.06249096 85.16841512 67.25209045 83.35926819 C63.46721381 79.575862 59.68409368 75.79071154 55.90234375 72.00418091 C51.54849134 67.6448877 47.19104857 63.28920826 42.83172411 58.93538767 C38.61455537 54.72332758 34.40023007 50.50843123 30.18707466 46.29235649 C28.40451907 44.5091365 26.62122775 42.72665162 24.83717155 40.94493294 C22.33920725 38.44952408 19.84449783 35.95090453 17.35058594 33.45144653 C16.62156067 32.7244455 15.8925354 31.99744446 15.14141846 31.24841309 C11.13412935 27.22470031 7.30191126 23.10394455 3.60176849 18.79542255 C1.95164186 16.89178644 0.21991324 15.10487964 -1.59057617 13.35354614 C-2.1996582 12.75671021 -2.80874023 12.15987427 -3.4362793 11.54495239 C-4.69253098 10.32459361 -5.9504082 9.10590645 -7.2097168 7.88870239 C-7.80977539 7.29960083 -8.40983398 6.71049927 -9.02807617 6.10354614 C-9.57004639 5.57841431 -10.1120166 5.05328247 -10.67041016 4.51223755 C-11.84448242 3.12698364 -11.84448242 3.12698364 -11.84448242 1.12698364 C-7.89168597 -0.19061517 -4.12038346 -0.01067793 0 0 Z " fill="#ffffff" transform="translate(24.844482421875,37.873016357421875)"/>
<path d="M0 0 C3.65021758 1.70682635 5.90271744 3.7234805 8.703125 6.6484375 C9.60160156 7.57140625 10.50007813 8.494375 11.42578125 9.4453125 C12.83604349 10.90494614 14.2428933 12.36755228 15.64404297 13.8359375 C24.41276818 23.1299504 24.41276818 23.1299504 36.125 27.53125 C37.07375 27.5209375 38.0225 27.510625 39 27.5 C40.423125 27.51546875 40.423125 27.51546875 41.875 27.53125 C52.05262594 25.80105359 58.16279376 18.31263201 65 11.25 C66.07067219 10.15923042 67.14227959 9.06937799 68.21484375 7.98046875 C70.82077085 5.33080768 73.41379604 2.66893194 76 0 C79.89066548 1.59457411 82.35024873 4.10280553 85.30004883 7.05712891 C85.8160817 7.57126343 86.33211456 8.08539795 86.86378479 8.6151123 C88.56645657 10.31408386 90.26182451 12.02014488 91.95703125 13.7265625 C93.14487293 14.9155974 94.33308573 16.10426165 95.52165222 17.29257202 C98.01372121 19.78620502 100.50239707 22.28315927 102.98852539 24.78271484 C106.15730013 27.96839593 109.33253318 31.14753914 112.51015186 34.32439613 C114.96673009 36.78124805 117.42067951 39.24071179 119.87378502 41.70103073 C121.04244939 42.87285348 122.21169941 44.0440925 123.38157082 45.21471024 C128.94034704 50.78091224 134.47589729 56.33046131 139.55865479 62.34313965 C142.7173048 65.97408241 146.25801797 69.25622214 149.72070312 72.59375 C151.18281122 74.02698953 152.59617692 75.50962542 154 77 C154 77.66 154 78.32 154 79 C150.04720355 80.31759882 146.27590104 80.13766157 142.15551758 80.12698364 C140.78277412 80.12932363 140.78277412 80.12932363 139.38229847 80.13171089 C136.30302655 80.13571273 133.22380357 80.13253437 130.14453125 80.12939453 C127.94208751 80.13074893 125.73964401 80.13252908 123.53720093 80.13470459 C117.54562706 80.13927429 111.55407036 80.13749125 105.56249619 80.1343255 C99.30183617 80.13179953 93.04117765 80.13414011 86.78051758 80.13571167 C75.5913038 80.13764942 64.40209634 80.13453534 53.21288407 80.12945233 C43.06346831 80.12498446 32.91406399 80.12576045 22.76464844 80.13037109 C10.98430966 80.13572011 -0.79602354 80.13771595 -12.57636356 80.13475883 C-18.81445147 80.13319715 -25.05253149 80.13299932 -31.2906189 80.13629532 C-37.15429852 80.13917689 -43.01795648 80.13719302 -48.88163376 80.13140106 C-51.03797749 80.13007501 -53.19432303 80.13046497 -55.35066605 80.13266373 C-58.28564146 80.13538126 -61.22054668 80.13198661 -64.15551758 80.12698364 C-65.44669888 80.13032973 -65.44669888 80.13032973 -66.76396465 80.13374341 C-70.09652104 80.12266433 -72.81608228 80.06130591 -76 79 C-74.57925676 75.754387 -72.86237319 73.6373841 -70.33203125 71.171875 C-69.60306641 70.45386719 -68.87410156 69.73585938 -68.12304688 68.99609375 C-67.36056641 68.25488281 -66.59808594 67.51367188 -65.8125 66.75 C-64.31649622 65.2890284 -62.82298431 63.82550062 -61.33203125 62.359375 C-60.33780151 61.39209473 -60.33780151 61.39209473 -59.32348633 60.40527344 C-57.45191953 58.46782718 -55.70477466 56.50448622 -53.95556641 54.45996094 C-49.03737151 48.80041672 -43.6905905 43.5664811 -38.37890625 38.28125 C-37.26767877 37.17189167 -36.15667488 36.06230933 -35.04588318 34.95251465 C-32.14655629 32.05697384 -29.24423728 29.16445093 -26.34124756 26.27258301 C-23.36953694 23.31117136 -20.40071733 20.34686446 -17.43164062 17.3828125 C-11.6238918 11.5857319 -5.81297327 5.7918418 0 0 Z " fill="#ffffff" transform="translate(89,138)"/>
<path d="M0 0 C0.99 0.495 0.99 0.495 2 1 C3.0761369 4.22841071 3.12846033 6.55677126 3.13371277 9.95249939 C3.14011024 11.81795662 3.14011024 11.81795662 3.14663696 13.72109985 C3.14628744 15.10174564 3.14582591 16.4823914 3.14526367 17.86303711 C3.14825539 19.31509996 3.15165794 20.76716202 3.15544128 22.21922302 C3.16428374 26.16547333 3.16661949 30.11170197 3.16725707 34.05796123 C3.16820607 37.35079699 3.17188422 40.64362769 3.17542917 43.93646151 C3.18357448 51.7039815 3.18601331 59.4714899 3.18530273 67.23901367 C3.18470175 75.25573422 3.19525755 83.27238752 3.2110464 91.28909105 C3.22411423 98.16899048 3.22948696 105.04886791 3.22884732 111.92877966 C3.22859214 116.0391368 3.23145488 120.14943418 3.24202538 124.25977898 C3.25169377 128.12490224 3.25179424 131.98990844 3.24450874 135.85503578 C3.24346136 137.27402288 3.24583486 138.69301723 3.2518692 140.11199188 C3.25957001 142.04815221 3.2537536 143.98435229 3.24723816 145.92051697 C3.24778293 147.00433623 3.24832769 148.0881555 3.24888897 149.20481777 C3.00123172 151.98616695 2.43723337 153.63509203 1 156 C-4.00619949 151.80470818 -8.70815221 147.43128848 -13.31225586 142.80126953 C-14.3525444 141.76120003 -14.3525444 141.76120003 -15.41384888 140.70011902 C-17.6832284 138.43004829 -19.94905495 136.1564667 -22.21484375 133.8828125 C-23.79645764 132.29933161 -25.37829389 130.71607279 -26.96034241 129.13302612 C-31.10696645 124.98259908 -35.25057751 120.8291768 -39.39355469 116.67510986 C-43.62838222 112.4300204 -47.8660712 108.1877895 -52.10351562 103.9453125 C-60.40513655 95.63299338 -68.70357522 87.31750511 -77 79 C-75.66627583 76.03845002 -74.20842075 73.96023206 -71.91220093 71.67169189 C-71.27839005 71.03513168 -70.64457916 70.39857147 -69.99156189 69.74272156 C-69.29744705 69.05579727 -68.60333221 68.36887299 -67.88818359 67.66113281 C-67.15637375 66.92903091 -66.4245639 66.19692902 -65.670578 65.44264221 C-63.25124171 63.02469891 -60.82489887 60.61391631 -58.3984375 58.203125 C-56.71934198 56.52775971 -55.04068757 54.85195222 -53.36245728 53.17572021 C-48.94454638 48.76544498 -44.52066219 44.36120887 -40.09552002 39.95819092 C-35.58090013 35.4640308 -31.07193767 30.96420262 -26.5625 26.46484375 C-17.71387054 17.63766304 -8.85892225 8.81685002 0 0 Z " fill="#ffffff" transform="translate(253,50)"/>
<path d="M0 0 C5.00619949 4.19529182 9.70815221 8.56871152 14.31225586 13.19873047 C15.00578156 13.89211014 15.69930725 14.58548981 16.41384888 15.29988098 C18.6832284 17.56995171 20.94905495 19.8435333 23.21484375 22.1171875 C24.79645764 23.70066839 26.37829389 25.28392721 27.96034241 26.86697388 C32.10696645 31.01740092 36.25057751 35.1708232 40.39355469 39.32489014 C44.62838222 43.5699796 48.8660712 47.8122105 53.10351562 52.0546875 C61.40513655 60.36700662 69.70357522 68.68249489 78 77 C76.66627583 79.96154998 75.20842075 82.03976794 72.91220093 84.32830811 C72.27839005 84.96486832 71.64457916 85.60142853 70.99156189 86.25727844 C70.29744705 86.94420273 69.60333221 87.63112701 68.88818359 88.33886719 C68.15637375 89.07096909 67.4245639 89.80307098 66.670578 90.55735779 C64.25124171 92.97530109 61.82489887 95.38608369 59.3984375 97.796875 C57.71934198 99.47224029 56.04068757 101.14804778 54.36245728 102.82427979 C49.94454638 107.23455502 45.52066219 111.63879113 41.09552002 116.04180908 C36.58090013 120.5359692 32.07193767 125.03579738 27.5625 129.53515625 C18.71387054 138.36233696 9.85892225 147.18314998 1 156 C-1 155 -1 155 -2 152 C-2.09552943 150.01763342 -2.13064293 148.03216524 -2.13371277 146.04750061 C-2.13797775 144.80386246 -2.14224274 143.5602243 -2.14663696 142.27890015 C-2.14628744 140.89825436 -2.14582591 139.5176086 -2.14526367 138.13696289 C-2.14825539 136.68490004 -2.15165794 135.23283798 -2.15544128 133.78077698 C-2.16428374 129.83452667 -2.16661949 125.88829803 -2.16725707 121.94203877 C-2.16820607 118.64920301 -2.17188422 115.35637231 -2.17542917 112.06353849 C-2.18357448 104.2960185 -2.18601331 96.5285101 -2.18530273 88.76098633 C-2.18470175 80.74426578 -2.19525755 72.72761248 -2.2110464 64.71090895 C-2.22411423 57.83100952 -2.22948696 50.95113209 -2.22884732 44.07122034 C-2.22859214 39.9608632 -2.23145488 35.85056582 -2.24202538 31.74022102 C-2.25169377 27.87509776 -2.25179424 24.01009156 -2.24450874 20.14496422 C-2.24346136 18.72597712 -2.24583486 17.30698277 -2.2518692 15.88800812 C-2.25957001 13.95184779 -2.2537536 12.01564771 -2.24723816 10.07948303 C-2.24778293 8.99566377 -2.24832769 7.9118445 -2.24888897 6.79518223 C-2.00123172 4.01383305 -1.43723337 2.36490797 0 0 Z " fill="#ffffff" transform="translate(2,50)"/>
</svg>
