<?xml version="1.0" encoding="UTF-8"?>
<svg version="1.1" xmlns="http://www.w3.org/2000/svg" width="256" height="256">
<path d="M0 0 C0.83111557 -0.00453111 1.66223114 -0.00906223 2.51853204 -0.01373065 C5.29579789 -0.02636291 8.07286734 -0.02475503 10.85015869 -0.02310181 C12.84464774 -0.02908784 14.83913447 -0.03589355 16.83361816 -0.04345703 C22.2469972 -0.06111783 27.66031301 -0.06581248 33.07371807 -0.0670886 C36.45786635 -0.06851085 39.84199859 -0.07278188 43.22614288 -0.07808304 C55.03832519 -0.09658443 66.85046237 -0.10475362 78.66265869 -0.10317993 C89.66327594 -0.10197889 100.66369686 -0.12307364 111.66426444 -0.15466726 C121.11670215 -0.1808446 130.5690758 -0.19154659 140.02154946 -0.19026911 C145.66352252 -0.18975986 151.30532113 -0.19542283 156.947258 -0.21662521 C162.25625614 -0.23603172 167.56491389 -0.2361154 172.87392426 -0.22159195 C174.81770323 -0.21950568 176.76150365 -0.22419386 178.70524597 -0.23631287 C192.26500345 -0.31535131 202.3466743 0.34953685 212.62457275 10.11898804 C219.3215247 17.39828363 221.90829579 24.79268776 221.86856079 34.67301941 C221.8730919 35.50484055 221.87762302 36.33666169 221.88229144 37.19368953 C221.89492369 39.97328931 221.89331582 42.75269285 221.8916626 45.53231812 C221.89764858 47.52842968 221.90445429 49.52453893 221.91201782 51.52064514 C221.92967795 56.93808913 221.93437321 62.35546993 221.93564939 67.77293992 C221.93707155 71.15909052 221.94134238 74.54522508 221.94664383 77.93137169 C221.96514419 89.74888503 221.97331444 101.56635327 221.97174072 113.38388062 C221.97053934 124.39247018 221.99164107 135.40086367 222.02322805 146.40940362 C222.04939581 155.8669212 222.0601078 165.32437475 222.0588299 174.78192824 C222.05832042 180.42778173 222.06399642 186.07346096 222.085186 191.71927834 C222.10457665 197.0307357 222.10468703 202.34185272 222.09015274 207.65332222 C222.08806458 209.59913379 222.09276593 211.54496671 222.10487366 213.49074173 C222.21025311 231.60354483 222.21025311 231.60354483 217.60113525 239.26742554 C217.1319165 240.06535522 216.66269775 240.86328491 216.17926025 241.68539429 C210.68508249 249.00557819 204.47788274 253.69328933 195.60113525 256.26742554 C192.70991489 256.65897226 189.86961713 256.67802397 186.95503235 256.65510559 C186.12150236 256.66049113 185.28797237 256.66587667 184.4291839 256.6714254 C181.65569996 256.68565284 178.88269683 256.67861424 176.10919189 256.67147827 C174.112784 256.67718455 172.11637937 256.68414981 170.11997986 256.692276 C164.7108837 256.71019358 159.3019499 256.70904167 153.89283299 256.70333362 C149.37245597 256.70023987 144.85211005 256.70633627 140.33173746 256.71237236 C129.66573233 256.72641128 118.99980732 256.72486144 108.33380127 256.71347046 C97.33992881 256.7019886 86.34630028 256.71606761 75.35245997 256.74286693 C65.90338649 256.76503597 56.45438951 256.77165862 47.00529188 256.76579052 C41.3661858 256.7624228 35.72723608 256.76482395 30.08815193 256.78204155 C24.78486019 256.79752778 19.48192938 256.7935363 14.17865181 256.7747364 C12.23606942 256.77105526 10.29346018 256.77414511 8.35090256 256.78462219 C-9.72996281 256.87467093 -9.72996281 256.87467093 -17.39886475 252.26742554 C-18.19679443 251.79820679 -18.99472412 251.32898804 -19.8168335 250.84555054 C-27.13722924 245.35121378 -31.82424308 239.14421123 -34.39886475 230.26742554 C-34.79033323 227.37842966 -34.80946622 224.54042122 -34.7865448 221.62805176 C-34.79193034 220.79522734 -34.79731588 219.96240291 -34.80286461 219.10434139 C-34.81709202 216.3331913 -34.81005343 213.56252242 -34.80291748 210.79135132 C-34.80862381 208.79656594 -34.81558908 206.80178382 -34.82371521 204.80700684 C-34.84163345 199.4019756 -34.84048061 193.99710684 -34.83477283 188.59205484 C-34.83167881 184.07425741 -34.83777587 179.55649108 -34.84381157 175.03869808 C-34.85785105 164.37744671 -34.85630051 153.71627548 -34.84490967 143.05502319 C-34.83343108 132.06912305 -34.84750119 121.08346711 -34.87430614 110.09759915 C-34.89648331 100.65360553 -34.9030959 91.20968846 -34.89722973 81.76567066 C-34.89386355 76.13044504 -34.89625274 70.49537591 -34.91348076 64.86017227 C-34.92897968 59.55933977 -34.92496147 54.25886817 -34.90617561 48.95804977 C-34.9024978 47.01749998 -34.90557453 45.07692326 -34.9160614 43.13639832 C-34.98365303 29.59021378 -34.30613681 19.51071734 -24.54730225 9.24398804 C-17.27046792 2.54930046 -9.87728502 -0.03975796 0 0 Z M42.60113525 70.26742554 C41.812229 70.89390991 41.02332275 71.52039429 40.21051025 72.16586304 C26.78382263 83.35476939 16.83350266 100.87035539 14.60113525 118.26742554 C12.81595247 140.3693165 16.37085769 160.90431272 30.93707275 178.32601929 C31.48621338 178.96668335 32.035354 179.60734741 32.60113525 180.26742554 C33.04715088 180.8565271 33.4931665 181.44562866 33.95269775 182.05258179 C41.75282031 192.06501981 55.86710609 201.73483418 68.519104 203.95492554 C70.04470947 204.10961304 70.04470947 204.10961304 71.60113525 204.26742554 C74.02243856 200.63547057 73.81136311 198.88393206 73.72613525 194.57992554 C73.70808838 193.40043335 73.6900415 192.22094116 73.67144775 191.00570679 C73.64824463 190.10207397 73.6250415 189.19844116 73.60113525 188.26742554 C72.83929932 188.30223022 72.07746338 188.33703491 71.2925415 188.37289429 C64.63414402 188.54745902 58.56695801 188.51480122 52.60113525 185.26742554 C49.2223382 182.04221017 47.37174538 178.87869139 45.22613525 174.76742554 C43.08458995 170.70327885 40.6494572 168.24935753 36.956604 165.55648804 C36.50929932 165.13109741 36.06199463 164.70570679 35.60113525 164.26742554 C35.60113525 163.27742554 35.60113525 162.28742554 35.60113525 161.26742554 C40.32931531 160.93755251 42.68406831 161.65604757 46.60113525 164.26742554 C47.26113525 164.26742554 47.92113525 164.26742554 48.60113525 164.26742554 C48.8744165 164.85265991 49.14769775 165.43789429 49.42926025 166.04086304 C51.82045072 170.58412492 54.85930762 174.3384508 59.41363525 176.76742554 C64.13170115 177.50751431 69.25818083 177.43890275 73.60113525 175.26742554 C74.47011049 173.45207472 74.47011049 173.45207472 75.16363525 171.32992554 C75.89935849 169.22949287 76.60514838 167.25939928 77.60113525 165.26742554 C76.63433838 165.04828491 75.6675415 164.82914429 74.67144775 164.60336304 C64.01277048 162.06251218 54.19129472 159.01630745 47.78082275 149.45492554 C42.44272792 139.55647153 41.56438295 127.65308784 43.78863525 116.76351929 C44.61587752 114.2221356 45.60775943 112.68105551 47.22613525 110.57992554 C50.73878598 105.62934761 49.93519955 99.94819981 49.67926025 94.16976929 C49.60241392 90.33129481 49.95483194 87.03263197 50.60113525 83.26742554 C57.67642314 84.76271834 63.72523951 86.46740407 69.85894775 90.37680054 C73.43353801 91.53777857 76.20385483 91.05017146 79.894104 90.57797241 C84.27320092 90.07560848 88.6358672 90.12214563 93.03863525 90.14242554 C93.96023437 90.14000854 94.8818335 90.13759155 95.83135986 90.13510132 C100.54049578 90.14758908 105.00619669 90.3820274 109.66363525 91.14242554 C115.23962539 91.81401864 118.96019471 89.38836067 123.71832275 86.70492554 C127.76860665 84.68527178 131.11410763 84.41699312 135.60113525 84.26742554 C137.14756856 89.72542544 137.68085782 93.75191892 136.91363525 99.39242554 C136.45048863 103.53969306 136.35302273 105.77789977 138.91363525 109.14242554 C139.36351807 109.61422241 139.81340088 110.08601929 140.2769165 110.57211304 C144.0437556 115.39455601 143.95640796 121.18628403 143.91363525 127.01742554 C143.90799561 127.81656372 143.90235596 128.6157019 143.89654541 129.4390564 C143.69357635 139.32726681 141.36211456 147.77280805 134.60113525 155.26742554 C127.38698438 161.33325652 118.5709706 163.23426286 109.60113525 165.26742554 C110.08453369 166.28062866 110.56793213 167.29383179 111.065979 168.33773804 C113.45959661 174.71603322 113.09397283 181.41502593 113.16363525 188.14242554 C113.19496583 190.76533257 113.24046161 193.3869228 113.2925415 196.00961304 C113.31103149 197.73993774 113.31103149 197.73993774 113.32989502 199.50521851 C113.32010921 202.40947864 113.32010921 202.40947864 115.60113525 204.26742554 C126.92950915 203.63037762 137.22430846 196.44756279 145.60113525 189.26742554 C146.19023682 188.82140991 146.77933838 188.37539429 147.3862915 187.91586304 C160.80218914 177.46429814 170.45329539 159.00576381 172.60113525 142.26742554 C174.44016774 119.49883516 170.26551534 98.28982032 155.41363525 80.39242554 C141.78262035 64.82936243 123.15051412 54.74715121 102.60113525 52.26742554 C80.26084539 50.85499888 60.0171971 55.90194777 42.60113525 70.26742554 Z " fill="#ffffff" transform="translate(34.39886474609375,-0.267425537109375)"/>
</svg>
