<?xml version="1.0" encoding="UTF-8"?>
<svg version="1.1" xmlns="http://www.w3.org/2000/svg" width="256" height="256">
<path d="M0 0 C1.40100511 -0.0040762 2.802007 -0.00942391 4.20300293 -0.01593018 C7.9716547 -0.02948517 11.74005722 -0.02435464 15.50871277 -0.01479292 C19.47489027 -0.00713443 23.44104811 -0.01425896 27.40722656 -0.01895142 C34.06449162 -0.02439111 40.72165645 -0.01726453 47.37890625 -0.00292969 C55.04750223 0.0133934 62.71585882 0.00810362 70.38444901 -0.0084089 C76.99885718 -0.02207497 83.61319379 -0.02391854 90.22761154 -0.0160929 C94.16484239 -0.01144438 98.10196117 -0.01071296 102.03918457 -0.02070236 C105.74283409 -0.0294448 109.44617855 -0.0232193 113.14979553 -0.00601959 C115.13692825 -0.00023806 117.12408713 -0.00900773 119.11120605 -0.0184021 C137.56866637 0.1105551 153.27596115 6.54936315 166.609375 19.38818359 C180.76972515 34.0940368 186.09269297 50.65575859 185.99755859 70.77880859 C186.0016348 72.1798137 186.0069825 73.58081559 186.01348877 74.98181152 C186.02704377 78.7504633 186.02191323 82.51886581 186.01235151 86.28752136 C186.00469302 90.25369887 186.01181755 94.21985671 186.01651001 98.18603516 C186.0219497 104.84330022 186.01482312 111.50046504 186.00048828 118.15771484 C185.98416519 125.82631082 185.98945497 133.49466741 186.0059675 141.1632576 C186.01963356 147.77766577 186.02147713 154.39200239 186.01365149 161.00642014 C186.00900297 164.94365099 186.00827155 168.88076976 186.01826096 172.81799316 C186.02700339 176.52164269 186.02077789 180.22498715 186.00357819 183.92860413 C185.99779665 185.91573684 186.00656633 187.90289573 186.01596069 189.89001465 C185.88700349 208.34747497 179.44819545 224.05476974 166.609375 237.38818359 C151.90352179 251.54853375 135.3418 256.87150156 115.21875 256.77636719 C113.81774489 256.78044339 112.416743 256.7857911 111.01574707 256.79229736 C107.2470953 256.80585236 103.47869278 256.80072183 99.71003723 256.79116011 C95.74385973 256.78350161 91.77770189 256.79062614 87.81152344 256.7953186 C81.15425838 256.80075829 74.49709355 256.79363172 67.83984375 256.77929688 C60.17124777 256.76297378 52.50289118 256.76826356 44.83430099 256.78477609 C38.21989282 256.79844215 31.60555621 256.80028573 24.99113846 256.79246008 C21.05390761 256.78781157 17.11678883 256.78708014 13.17956543 256.79706955 C9.47591591 256.80581199 5.77257145 256.79958649 2.06895447 256.78238678 C0.08182175 256.77660525 -1.90533713 256.78537492 -3.89245605 256.79476929 C-22.34991637 256.66581208 -38.05721115 250.22700404 -51.390625 237.38818359 C-65.55097515 222.68233038 -70.87394297 206.12060859 -70.77880859 185.99755859 C-70.7828848 184.59655348 -70.7882325 183.1955516 -70.79473877 181.79455566 C-70.80829377 178.02590389 -70.80316323 174.25750137 -70.79360151 170.48884583 C-70.78594302 166.52266832 -70.79306755 162.55651048 -70.79776001 158.59033203 C-70.8031997 151.93306697 -70.79607312 145.27590214 -70.78173828 138.61865234 C-70.76541519 130.95005637 -70.77070497 123.28169978 -70.7872175 115.61310959 C-70.80088356 108.99870141 -70.80272713 102.3843648 -70.79490149 95.76994705 C-70.79025297 91.8327162 -70.78952155 87.89559743 -70.79951096 83.95837402 C-70.80825339 80.2547245 -70.80202789 76.55138004 -70.78482819 72.84776306 C-70.77904665 70.86063034 -70.78781633 68.87347146 -70.79721069 66.88635254 C-70.66825349 48.42889222 -64.22944545 32.72159744 -51.390625 19.38818359 C-36.68477179 5.22783344 -20.12305 -0.09513437 0 0 Z M-14.421875 60.75146484 C-25.14608728 75.11424915 -25.70669293 90.55088629 -25.65625 107.82568359 C-25.65760174 109.47989967 -25.65954647 111.13411535 -25.66204834 112.78833008 C-25.66497572 116.23408843 -25.66077962 119.67974221 -25.65136719 123.12548828 C-25.63997412 127.50591868 -25.64654651 131.88610383 -25.65851212 136.26652527 C-25.6657957 139.67608432 -25.66341323 143.0855868 -25.65825653 146.49514771 C-25.65693793 148.10881582 -25.6585037 149.72248935 -25.66321564 151.33615112 C-25.70288418 168.73163432 -24.60338411 184.83663954 -12.328125 198.32568359 C1.8341701 211.21361258 18.90106303 211.70679491 37.046875 211.65380859 C38.70109107 211.65516033 40.35530675 211.65710506 42.00952148 211.65960693 C45.45527984 211.66253431 48.90093361 211.65833822 52.34667969 211.64892578 C56.72711008 211.63753272 61.10729524 211.6441051 65.48771667 211.65607071 C68.89727573 211.66335429 72.3067782 211.66097182 75.71633911 211.65581512 C77.33000723 211.65449652 78.94368076 211.65606229 80.55734253 211.66077423 C97.95282573 211.70044277 114.05783094 210.6009427 127.546875 198.32568359 C140.43480398 184.1633885 140.92798632 167.09649556 140.875 148.95068359 C140.87635174 147.29646752 140.87829647 145.64225184 140.88079834 143.98803711 C140.88372572 140.54227875 140.87952962 137.09662498 140.87011719 133.65087891 C140.85872412 129.27044851 140.86529651 124.89026336 140.87726212 120.50984192 C140.8845457 117.10028287 140.88216323 113.69078039 140.87700653 110.28121948 C140.87568793 108.66755137 140.8772537 107.05387784 140.88196564 105.44021606 C140.92163418 88.04473286 139.82213411 71.93972765 127.546875 58.45068359 C113.3845799 45.56275461 96.31768697 45.06957227 78.171875 45.12255859 C76.51765893 45.12120686 74.86344325 45.11926212 73.20922852 45.11676025 C69.76347016 45.11383287 66.31781639 45.11802897 62.87207031 45.12744141 C58.49163992 45.13883447 54.11145476 45.13226208 49.73103333 45.12029648 C46.32147427 45.11301289 42.9119718 45.11539537 39.50241089 45.12055206 C37.88874277 45.12187067 36.27506924 45.1203049 34.66140747 45.11559296 C16.35260009 45.07384168 -1.29792917 46.32981542 -14.421875 60.75146484 Z " fill="#ffffff" transform="translate(70.390625,-0.38818359375)"/>
<path d="M0 0 C0.87936722 -0.01022186 1.75873444 -0.02044373 2.66474915 -0.03097534 C5.54525687 -0.05856617 8.42479651 -0.05686925 11.30541992 -0.05224609 C13.32647551 -0.06003188 15.34752786 -0.06870365 17.36857605 -0.07821655 C21.59576036 -0.09309825 25.82261048 -0.09259045 30.04980469 -0.08203125 C35.43980156 -0.07045536 40.82842084 -0.10428859 46.21819019 -0.1507206 C50.3903947 -0.18033368 54.56227282 -0.18192001 58.73456383 -0.17570114 C60.72030042 -0.17672092 62.70605689 -0.18707056 64.69169044 -0.20732498 C76.89898822 -0.31656483 86.88174997 -0.14902675 96.62385559 8.17269897 C102.94864132 14.85171421 105.32784078 22.8230071 105.27270508 31.82592773 C105.28292694 32.70529495 105.2931488 33.58466217 105.30368042 34.49067688 C105.33127125 37.3711846 105.32957433 40.25072425 105.32495117 43.13134766 C105.33273696 45.15240324 105.34140873 47.17345559 105.35092163 49.19450378 C105.36580333 53.42168809 105.36529552 57.64853822 105.35473633 61.87573242 C105.34316044 67.26572929 105.37699366 72.65434858 105.42342567 78.04411793 C105.45303876 82.21632243 105.45462509 86.38820056 105.44840622 90.56049156 C105.449426 92.54622815 105.45977564 94.53198463 105.48003006 96.51761818 C105.58926991 108.72491595 105.42173182 118.70767771 97.1000061 128.44978333 C90.42099087 134.77456905 82.44969798 137.15376852 73.44677734 137.09863281 C72.56741013 137.10885468 71.68804291 137.11907654 70.7820282 137.12960815 C67.90152048 137.15719898 65.02198083 137.15550207 62.14135742 137.15087891 C60.12030184 137.15866469 58.09924949 137.16733646 56.07820129 137.17684937 C51.85101699 137.19173106 47.62416686 137.19122326 43.39697266 137.18066406 C38.00697579 137.16908818 32.6183565 137.2029214 27.22858715 137.24935341 C23.05638265 137.27896649 18.88450452 137.28055282 14.71221352 137.27433395 C12.72647693 137.27535374 10.74072045 137.28570337 8.7550869 137.30595779 C-3.45221087 137.41519764 -13.43497263 137.24765956 -23.17707825 128.92593384 C-29.50186397 122.2469186 -31.88106344 114.27562571 -31.82592773 105.27270508 C-31.8361496 104.39333786 -31.84637146 103.51397064 -31.85690308 102.60795593 C-31.88449391 99.72744821 -31.88279699 96.84790857 -31.87817383 93.96728516 C-31.88595961 91.94622957 -31.89463138 89.92517722 -31.90414429 87.90412903 C-31.91902599 83.67694472 -31.91851818 79.4500946 -31.90795898 75.22290039 C-31.8963831 69.83290352 -31.93021632 64.44428423 -31.97664833 59.05451488 C-32.00626141 54.88231038 -32.00784774 50.71043225 -32.00162888 46.53814125 C-32.00264866 44.55240466 -32.01299829 42.56664819 -32.03325272 40.58101463 C-32.14249256 28.37371686 -31.97495448 18.39095511 -23.65322876 8.64884949 C-16.97421352 2.32406376 -9.00292063 -0.0551357 0 0 Z M74.91088867 20.67431641 C72.4199892 23.36191604 72.4199892 23.36191604 72.66088867 26.67431641 C73.536322 29.5657729 73.536322 29.5657729 75.41088867 31.48681641 C78.62282801 32.96257232 80.3881367 32.61375853 83.72338867 31.54931641 C85.80194948 29.97236009 85.80194948 29.97236009 86.72338867 27.54931641 C86.65115872 24.01004881 86.39533858 22.24443701 83.91088867 19.67431641 C80.12083285 17.72514484 78.23434257 18.16326235 74.91088867 20.67431641 Z M6.66088867 46.79931641 C0.61405836 55.38191427 -1.18927113 64.18500167 -0.27661133 74.54931641 C2.47610971 85.57446335 8.42624447 93.99905572 17.72338867 100.54931641 C26.82479171 105.15720807 35.56150273 107.33747163 45.74291992 104.79541016 C55.82438815 101.27861891 64.87804327 95.14455537 69.82495117 85.37353516 C74.14328497 75.88252095 75.49966967 66.78298862 71.97338867 56.67431641 C67.44411125 45.61334419 59.78168554 38.11193775 48.90698242 33.38134766 C32.51765859 27.13639958 17.73073408 34.72312141 6.66088867 46.79931641 Z " fill="#ffffff" transform="translate(91.276611328125,59.45068359375)"/>
<path d="M0 0 C5.21124298 4.67420649 8.48207214 9.20711202 9.24609375 16.27734375 C9.61779168 23.58740305 8.11594846 29.52604895 3.1640625 35.046875 C-2.84718933 40.62052612 -8.24143835 42.52556923 -16.4140625 42.3046875 C-23.95110828 41.41663679 -28.97250979 37.85869138 -33.625 32 C-37.42458825 26.47332619 -37.76781852 20.51661357 -37 14 C-35.14192232 6.77936901 -31.07107696 2.17386541 -25 -2 C-16.9546304 -6.0226848 -7.38364072 -4.89508033 0 0 Z " fill="#ffffff" transform="translate(142,109)"/>
</svg>
