<?xml version="1.0" encoding="UTF-8"?>
<svg version="1.1" xmlns="http://www.w3.org/2000/svg" width="256" height="256">
<path d="M0 0 C0.83111557 -0.00453111 1.66223114 -0.00906223 2.51853204 -0.01373065 C5.29579789 -0.02636291 8.07286734 -0.02475503 10.85015869 -0.02310181 C12.84464774 -0.02908784 14.83913447 -0.03589355 16.83361816 -0.04345703 C22.2469972 -0.06111783 27.66031301 -0.06581248 33.07371807 -0.0670886 C36.45786635 -0.06851085 39.84199859 -0.07278188 43.22614288 -0.07808304 C55.03832519 -0.09658443 66.85046237 -0.10475362 78.66265869 -0.10317993 C89.66327594 -0.10197889 100.66369686 -0.12307364 111.66426444 -0.15466726 C121.11670215 -0.1808446 130.5690758 -0.19154659 140.02154946 -0.19026911 C145.66352252 -0.18975986 151.30532113 -0.19542283 156.947258 -0.21662521 C162.25625614 -0.23603172 167.56491389 -0.2361154 172.87392426 -0.22159195 C174.81770323 -0.21950568 176.76150365 -0.22419386 178.70524597 -0.23631287 C192.26500345 -0.31535131 202.3466743 0.34953685 212.62457275 10.11898804 C219.3215247 17.39828363 221.90829579 24.79268776 221.86856079 34.67301941 C221.8730919 35.50484055 221.87762302 36.33666169 221.88229144 37.19368953 C221.89492369 39.97328931 221.89331582 42.75269285 221.8916626 45.53231812 C221.89764858 47.52842968 221.90445429 49.52453893 221.91201782 51.52064514 C221.92967795 56.93808913 221.93437321 62.35546993 221.93564939 67.77293992 C221.93707155 71.15909052 221.94134238 74.54522508 221.94664383 77.93137169 C221.96514419 89.74888503 221.97331444 101.56635327 221.97174072 113.38388062 C221.97053934 124.39247018 221.99164107 135.40086367 222.02322805 146.40940362 C222.04939581 155.8669212 222.0601078 165.32437475 222.0588299 174.78192824 C222.05832042 180.42778173 222.06399642 186.07346096 222.085186 191.71927834 C222.10457665 197.0307357 222.10468703 202.34185272 222.09015274 207.65332222 C222.08806458 209.59913379 222.09276593 211.54496671 222.10487366 213.49074173 C222.21025311 231.60354483 222.21025311 231.60354483 217.60113525 239.26742554 C217.1319165 240.06535522 216.66269775 240.86328491 216.17926025 241.68539429 C210.68508249 249.00557819 204.47788274 253.69328933 195.60113525 256.26742554 C192.70991489 256.65897226 189.86961713 256.67802397 186.95503235 256.65510559 C186.12150236 256.66049113 185.28797237 256.66587667 184.4291839 256.6714254 C181.65569996 256.68565284 178.88269683 256.67861424 176.10919189 256.67147827 C174.112784 256.67718455 172.11637937 256.68414981 170.11997986 256.692276 C164.7108837 256.71019358 159.3019499 256.70904167 153.89283299 256.70333362 C149.37245597 256.70023987 144.85211005 256.70633627 140.33173746 256.71237236 C129.66573233 256.72641128 118.99980732 256.72486144 108.33380127 256.71347046 C97.33992881 256.7019886 86.34630028 256.71606761 75.35245997 256.74286693 C65.90338649 256.76503597 56.45438951 256.77165862 47.00529188 256.76579052 C41.3661858 256.7624228 35.72723608 256.76482395 30.08815193 256.78204155 C24.78486019 256.79752778 19.48192938 256.7935363 14.17865181 256.7747364 C12.23606942 256.77105526 10.29346018 256.77414511 8.35090256 256.78462219 C-9.72996281 256.87467093 -9.72996281 256.87467093 -17.39886475 252.26742554 C-18.19679443 251.79820679 -18.99472412 251.32898804 -19.8168335 250.84555054 C-27.13722924 245.35121378 -31.82424308 239.14421123 -34.39886475 230.26742554 C-34.79033323 227.37842966 -34.80946622 224.54042122 -34.7865448 221.62805176 C-34.79193034 220.79522734 -34.79731588 219.96240291 -34.80286461 219.10434139 C-34.81709202 216.3331913 -34.81005343 213.56252242 -34.80291748 210.79135132 C-34.80862381 208.79656594 -34.81558908 206.80178382 -34.82371521 204.80700684 C-34.84163345 199.4019756 -34.84048061 193.99710684 -34.83477283 188.59205484 C-34.83167881 184.07425741 -34.83777587 179.55649108 -34.84381157 175.03869808 C-34.85785105 164.37744671 -34.85630051 153.71627548 -34.84490967 143.05502319 C-34.83343108 132.06912305 -34.84750119 121.08346711 -34.87430614 110.09759915 C-34.89648331 100.65360553 -34.9030959 91.20968846 -34.89722973 81.76567066 C-34.89386355 76.13044504 -34.89625274 70.49537591 -34.91348076 64.86017227 C-34.92897968 59.55933977 -34.92496147 54.25886817 -34.90617561 48.95804977 C-34.9024978 47.01749998 -34.90557453 45.07692326 -34.9160614 43.13639832 C-34.98365303 29.59021378 -34.30613681 19.51071734 -24.54730225 9.24398804 C-17.27046792 2.54930046 -9.87728502 -0.03975796 0 0 Z M21.60113525 54.26742554 C16.8104143 59.27590653 14.96089395 63.18377955 14.16363525 70.01742554 C14.33514581 75.97455879 17.19035038 81.49469977 21.0581665 85.94320679 C26.05578876 90.41337551 31.61404457 91.8194415 38.16363525 91.64242554 C44.25717757 90.70495749 49.82601471 87.81118554 53.60113525 82.89242554 C56.99585069 77.30679447 58.14099748 71.9826816 57.206604 65.54086304 C55.32541986 58.47732 50.76479172 53.90440796 44.72613525 50.07992554 C36.14409544 46.79855737 28.60796683 48.66196027 21.60113525 54.26742554 Z M104.10113525 112.14242554 C103.60613525 112.84367554 103.11113525 113.54492554 102.60113525 114.26742554 C102.575354 113.58035522 102.54957275 112.89328491 102.52301025 112.18539429 C102.4662915 111.2843396 102.40957275 110.38328491 102.35113525 109.45492554 C102.304729 108.56160522 102.25832275 107.66828491 102.21051025 106.74789429 C101.81265749 104.18814181 101.81265749 104.18814181 99.93634033 102.63729858 C96.99057199 100.90925821 95.03239201 100.87996587 91.628479 100.86898804 C90.48185791 100.86512085 89.33523682 100.86125366 88.15386963 100.85726929 C86.96084229 100.86887085 85.76781494 100.88047241 84.53863525 100.89242554 C83.34174072 100.88082397 82.14484619 100.86922241 80.91168213 100.85726929 C79.7663501 100.86113647 78.62101807 100.86500366 77.440979 100.86898804 C75.86884644 100.87406372 75.86884644 100.87406372 74.26495361 100.87924194 C71.16617127 101.33081044 70.49284591 101.84850934 68.60113525 104.26742554 C68.14739431 106.24200716 68.14739431 106.24200716 68.20672607 108.44235229 C68.19537628 109.29197037 68.18402649 110.14158844 68.17233276 111.01695251 C68.17526337 111.94587814 68.17819397 112.87480377 68.18121338 113.83187866 C68.17274384 114.81260849 68.16427429 115.79333832 68.1555481 116.80378723 C68.13210955 120.05221448 68.1311575 123.30017006 68.13238525 126.54867554 C68.12528842 128.80164786 68.11759014 131.05461837 68.10931396 133.30758667 C68.0958538 138.0320437 68.09430759 142.75633358 68.10015869 147.48080444 C68.10605965 153.54424554 68.07545323 159.60688728 68.03504181 165.67017365 C68.00923331 170.32323552 68.00628111 174.9761031 68.00993347 179.62922668 C68.00823616 181.86521923 67.99853533 184.10122018 67.98078918 186.33714294 C67.95873255 189.45963577 67.96823372 192.58048673 67.98590088 195.70297241 C67.97263763 196.63189804 67.95937439 197.56082367 67.94570923 198.51789856 C67.97680663 200.8750564 68.04150965 202.97771383 68.60113525 205.26742554 C71.94022381 208.18406244 74.61915182 208.64496184 78.9800415 208.63070679 C79.98357666 208.63006226 80.98711182 208.62941772 82.02105713 208.62875366 C83.5766333 208.60458374 83.5766333 208.60458374 85.16363525 208.57992554 C86.72501221 208.58475952 86.72501221 208.58475952 88.31793213 208.58969116 C94.76451493 208.68052288 94.76451493 208.68052288 100.60113525 206.26742554 C101.90927305 203.65114995 101.73292245 201.71297269 101.74298096 198.78305054 C101.75001541 197.63425415 101.75704987 196.48545776 101.76429749 195.30184937 C101.76846176 194.0529895 101.77262604 192.80412964 101.7769165 191.51742554 C101.79417842 189.55650925 101.81146441 187.59559286 101.83011913 185.63468933 C101.87561236 180.79631629 101.91335476 175.95805113 101.92706299 171.11947632 C101.93524233 168.40980039 101.95394044 165.70058006 101.98399353 162.99105835 C102.01196445 160.44235364 102.02507957 157.89342911 102.02113342 155.34457397 C102.12977048 147.61054439 102.68665249 139.60201008 108.11891174 133.58676147 C113.25235407 129.17320291 116.96540129 128.90318657 123.550354 129.00570679 C128.21807119 129.40613835 130.03265853 130.14500841 133.60113525 133.26742554 C138.13074927 140.93141311 138.17456743 148.8087289 138.14019775 157.48226929 C138.15012567 158.82844118 138.1620748 160.17459953 138.17593384 161.52073669 C138.20803401 165.0327136 138.21866648 168.54437889 138.22277832 172.05648804 C138.23159762 177.70083836 138.267032 183.34493682 138.31495285 188.98907661 C138.32751627 190.95388732 138.32619811 192.91877093 138.32467651 194.88362122 C138.33163544 196.07238358 138.33859436 197.26114594 138.34576416 198.4859314 C138.34702301 199.53276596 138.34828186 200.57960052 138.34957886 201.65815735 C138.41645695 204.50205928 138.41645695 204.50205928 140.60113525 207.26742554 C143.67306018 207.71897254 143.67306018 207.71897254 147.28863525 207.63070679 C148.27609741 207.63145454 148.27609741 207.63145454 149.2835083 207.63221741 C150.67554746 207.62987658 152.06759083 207.62014734 153.45953369 207.60360718 C155.59305575 207.58001488 157.72532844 207.58304514 159.85894775 207.58969116 C166.82412846 208.11615752 166.82412846 208.11615752 172.60113525 205.26742554 C172.91542116 202.59653228 172.91542116 202.59653228 172.87579346 199.43515015 C172.88532547 198.20884384 172.89485748 196.98253754 172.90467834 195.71907043 C172.90441652 194.3693031 172.90347754 193.01953575 172.9019165 191.66976929 C172.90580773 190.27845635 172.91014328 188.88714459 172.91490173 187.49583435 C172.92238126 184.5660622 172.92206557 181.6364104 172.91680908 178.70663452 C172.91221728 175.73219524 172.91893461 172.75816844 172.93731689 169.78378296 C174.1738199 138.02289634 174.1738199 138.02289634 161.63238525 109.89633179 C153.63356054 101.99894145 144.393412 99.9222064 133.47613525 99.82992554 C121.31805064 100.00862836 112.27840541 102.73856485 104.10113525 112.14242554 Z M19.60113525 104.26742554 C18.98612564 107.41550798 19.07620757 110.54191916 19.11529541 113.74008179 C19.11149872 114.71105804 19.10770203 115.6820343 19.10379028 116.68243408 C19.09636846 119.89859101 19.11779054 123.11384861 19.14019775 126.32992554 C19.1425813 128.56047459 19.14348769 130.79102566 19.14297485 133.02157593 C19.14610567 137.69903102 19.16269291 142.37618021 19.18951416 147.05355835 C19.22349424 153.05623109 19.2311429 159.05856742 19.22962379 165.06132507 C19.23016706 169.66805242 19.2411273 174.27470589 19.25562668 178.88140869 C19.26200152 181.09504639 19.26593517 183.30869248 19.26741409 185.52233887 C19.27173976 188.61329475 19.28922518 191.7038905 19.31060791 194.79476929 C19.30970154 195.71434418 19.30879517 196.63391907 19.30786133 197.58135986 C19.3163913 198.42256378 19.32492126 199.2637677 19.33370972 200.13046265 C19.33706141 200.8612352 19.34041309 201.59200775 19.34386635 202.34492493 C19.50152092 204.59406193 19.50152092 204.59406193 21.60113525 207.26742554 C26.32081357 208.84065164 31.09602997 208.45190254 36.03863525 208.45492554 C37.08857666 208.46717163 38.13851807 208.47941772 39.22027588 208.49203491 C40.23154541 208.49396851 41.24281494 208.4959021 42.284729 208.49789429 C43.67002808 208.50405762 43.67002808 208.50405762 45.08331299 208.51034546 C47.74867755 208.25319063 49.35711947 207.70781326 51.60113525 206.26742554 C53.32871215 202.81227174 52.76692472 198.81995542 52.77813721 195.01596069 C52.7847084 194.05649033 52.7912796 193.09701996 52.79804993 192.10847473 C52.81780647 188.92447844 52.82944971 185.74052932 52.8394165 182.55648804 C52.84349203 181.47109112 52.84756756 180.3856942 52.85176659 179.26740646 C52.87263566 173.5245762 52.88693474 167.78176991 52.89630127 162.03890991 C52.90737789 156.09787749 52.94179007 150.15721837 52.98147297 144.21631813 C53.00757476 139.65589688 53.0159873 135.09556553 53.01958275 130.53507614 C53.02446402 128.34456226 53.03612149 126.1540528 53.05462074 123.9636116 C53.07887891 120.90133005 53.07807162 117.84002696 53.07110596 114.77767944 C53.09032104 113.41537956 53.09032104 113.41537956 53.10992432 112.02555847 C53.09408986 107.01958905 53.09408986 107.01958905 50.73960876 102.70439148 C47.97137976 100.84425584 46.20440351 100.76518188 42.88238525 100.77133179 C41.78539307 100.77068726 40.68840088 100.77004272 39.5581665 100.76937866 C38.41734619 100.78935913 37.27652588 100.8093396 36.10113525 100.82992554 C34.96031494 100.82283569 33.81949463 100.81574585 32.644104 100.80844116 C25.37483287 100.52624067 25.37483287 100.52624067 19.60113525 104.26742554 Z " fill="#ffffff" transform="translate(34.39886474609375,-0.267425537109375)"/>
</svg>
