<?xml version="1.0" encoding="UTF-8"?>
<svg version="1.1" xmlns="http://www.w3.org/2000/svg" width="512" height="512">
<path d="M0 0 C1.43423576 -0.00302607 2.8684699 -0.00691783 4.30270123 -0.01159257 C8.21666506 -0.02182278 12.13053677 -0.01970352 16.04450798 -0.01541197 C20.27641651 -0.01293562 24.50830337 -0.02197021 28.74020386 -0.02944946 C37.02090231 -0.04217377 45.3015683 -0.04399295 53.58227488 -0.0416492 C60.31672747 -0.03986317 67.05117023 -0.04162179 73.78562164 -0.04587364 C74.74562612 -0.04646883 75.7056306 -0.04706402 76.69472612 -0.04767724 C78.64525928 -0.04888905 80.59579244 -0.05010319 82.54632559 -0.05131962 C100.823282 -0.06218664 119.10021994 -0.06003677 137.37717739 -0.05393478 C154.07587225 -0.04876763 170.77450875 -0.06001721 187.47319207 -0.07903299 C204.64189666 -0.09843328 221.81057367 -0.10666347 238.97928929 -0.10290974 C248.60914484 -0.10100086 258.23895073 -0.1034546 267.8687973 -0.11762428 C276.06786565 -0.12956708 284.26685377 -0.13091064 292.46592328 -0.11883412 C296.64400991 -0.11296543 300.82195003 -0.11178989 305.0000267 -0.12383652 C308.83454229 -0.13476345 312.66879024 -0.1315121 316.50329366 -0.11757483 C318.52671159 -0.11371387 320.55014172 -0.12441912 322.57353091 -0.13587171 C334.34267798 -0.06721259 346.15164314 1.45210436 356.87921143 6.57319641 C357.54452881 6.87878479 358.20984619 7.18437317 358.89532471 7.4992218 C383.03698082 18.79639154 400.84094116 37.89671611 410.89093018 62.50288391 C414.85154323 73.83995472 415.86186248 84.73501739 415.82740784 96.69398499 C415.83043391 98.12822074 415.83432566 99.56245489 415.8390004 100.99668622 C415.84923062 104.91065005 415.84711136 108.82452176 415.84281981 112.73849297 C415.84034346 116.97040149 415.84937805 121.20228836 415.8568573 125.43418884 C415.86958161 133.7148873 415.87140079 141.99555329 415.86905704 150.27625987 C415.867271 157.01071245 415.86902963 163.74515522 415.87328148 170.47960663 C415.87387667 171.43961111 415.87447186 172.39961559 415.87508508 173.38871111 C415.87629689 175.33924427 415.87751102 177.28977742 415.87872746 179.24031058 C415.88959448 197.51726699 415.88744461 215.79420493 415.88134261 234.07116237 C415.87617547 250.76985724 415.88742505 267.46849373 415.90644083 284.16717705 C415.92584112 301.33588165 415.93407131 318.50455866 415.93031758 335.67327428 C415.9284087 345.30312982 415.93086244 354.93293571 415.94503212 364.56278229 C415.95697492 372.76185063 415.95831848 380.96083876 415.94624195 389.15990826 C415.94037327 393.3379949 415.93919773 397.51593501 415.95124435 401.69401169 C415.96217129 405.52852728 415.95891993 409.36277522 415.94498267 413.19727865 C415.94112171 415.22069657 415.95182696 417.2441267 415.96327955 419.2675159 C415.89462042 431.03666297 414.37530348 442.84562813 409.25421143 453.57319641 C408.79582886 454.57117249 408.79582886 454.57117249 408.32818604 455.58930969 C397.03101629 479.73096581 377.93069173 497.53492614 353.32452393 507.58491516 C341.98745311 511.54552821 331.09239045 512.55584747 319.13342285 512.52139282 C317.69918709 512.52441889 316.26495295 512.52831065 314.83072162 512.53298539 C310.91675779 512.5432156 307.00288608 512.54109634 303.08891487 512.5368048 C298.85700635 512.53432845 294.62511948 512.54336304 290.39321899 512.55084229 C282.11252054 512.56356659 273.83185455 512.56538577 265.55114797 512.56304202 C258.81669538 512.56125599 252.08225262 512.56301462 245.34780121 512.56726646 C244.38779673 512.56786165 243.42779225 512.56845684 242.43869673 512.56907007 C240.48816357 512.57028187 238.53763041 512.57149601 236.58709726 512.57271244 C218.31014085 512.58357946 200.03320291 512.58142959 181.75624546 512.5753276 C165.0575506 512.57016046 148.35891411 512.58141003 131.66023079 512.60042582 C114.49152619 512.61982611 97.32284918 512.62805629 80.15413356 512.62430257 C70.52427801 512.62239368 60.89447212 512.62484742 51.26462555 512.63901711 C43.0655572 512.6509599 34.86656908 512.65230346 26.66749957 512.64022694 C22.48941294 512.63435826 18.31147283 512.63318271 14.13339615 512.64522934 C10.29888056 512.65615627 6.46463262 512.65290492 2.63012919 512.63896766 C0.60671126 512.63510669 -1.41671886 512.64581194 -3.44010806 512.65726453 C-15.20925513 512.58860541 -27.01822029 511.06928846 -37.74578857 505.94819641 C-38.41110596 505.64260803 -39.07642334 505.33701965 -39.76190186 505.02217102 C-63.90355797 493.72500128 -81.70751831 474.62467671 -91.75750732 450.01850891 C-95.71812037 438.6814381 -96.72843963 427.78637543 -96.69398499 415.82740784 C-96.69701106 414.39317208 -96.70090281 412.95893793 -96.70557755 411.5247066 C-96.71580776 407.61074278 -96.71368851 403.69687106 -96.70939696 399.78289986 C-96.70692061 395.55099133 -96.7159552 391.31910447 -96.72343445 387.08720398 C-96.73615875 378.80650553 -96.73797793 370.52583954 -96.73563419 362.24513295 C-96.73384815 355.51068037 -96.73560678 348.77623761 -96.73985863 342.04178619 C-96.74045382 341.08178172 -96.74104901 340.12177724 -96.74166223 339.13268171 C-96.74287404 337.18214855 -96.74408817 335.2316154 -96.74530461 333.28108224 C-96.75617163 315.00412583 -96.75402175 296.72718789 -96.74791976 278.45023045 C-96.74275262 261.75153558 -96.7540022 245.05289909 -96.77301798 228.35421577 C-96.79241827 211.18551118 -96.80064846 194.01683417 -96.79689473 176.84811854 C-96.79498585 167.218263 -96.79743959 157.58845711 -96.81160927 147.95861053 C-96.82355206 139.75954219 -96.82489563 131.56055406 -96.8128191 123.36148456 C-96.80695042 119.18339792 -96.80577488 115.00545781 -96.8178215 110.82738113 C-96.82874844 106.99286554 -96.82549708 103.1586176 -96.81155982 99.32411417 C-96.80769886 97.30069625 -96.81840411 95.27726612 -96.82985669 93.25387692 C-96.76119757 81.48472985 -95.24188062 69.67576469 -90.12078857 58.94819641 C-89.8152002 58.28287903 -89.50961182 57.61756165 -89.19476318 56.93208313 C-77.89759344 32.79042702 -58.79726887 14.98646668 -34.19110107 4.93647766 C-22.85403026 0.97586461 -11.9589676 -0.03445465 0 0 Z M172.37921143 152.44819641 C159.60946022 167.52541806 154.34263607 185.63399657 155.56671143 205.26069641 C156.13305844 208.28724523 156.8178183 211.27445855 157.56671143 214.26069641 C130.18444376 212.04681094 104.34172462 206.38452093 79.56671143 194.26069641 C78.48994141 193.7366925 78.48994141 193.7366925 77.39141846 193.20210266 C52.31355392 180.84702571 31.04330111 163.10141667 12.56671143 142.26069641 C9.69922808 145.62286256 8.38682576 149.04460092 6.94171143 153.19819641 C6.5163208 154.40346985 6.09093018 155.60874329 5.65264893 156.85054016 C0.4491052 173.19116488 2.38267269 193.17755805 9.75421143 208.44819641 C15.55059766 219.36331203 22.77071998 226.8056588 32.56671143 234.26069641 C22.87477828 233.41737236 14.33275523 231.85870456 5.26202393 228.28413391 C2.73559977 227.14236942 2.73559977 227.14236942 0.56671143 227.26069641 C-0.90225012 242.66847081 5.55873002 257.50348742 15.03936768 269.35054016 C25.13915114 281.13577934 38.55388044 292.05848883 54.44171143 294.13569641 C55.47296143 294.17694641 56.50421143 294.21819641 57.56671143 294.26069641 C57.56671143 294.92069641 57.56671143 295.58069641 57.56671143 296.26069641 C50.99971617 297.10912815 44.62120549 297.38630787 38.00421143 297.32319641 C37.09091064 297.31868469 36.17760986 297.31417297 35.2366333 297.30952454 C33.01325404 297.29788381 30.79002021 297.28153492 28.56671143 297.26069641 C33.16773412 312.22943915 42.50626688 324.53621434 55.56671143 333.26069641 C56.15581299 333.68866516 56.74491455 334.11663391 57.35186768 334.55757141 C65.80403738 340.3718028 77.04194934 344.44551501 87.31671143 344.32319641 C88.30155518 344.31417297 89.28639893 344.30514954 90.30108643 344.29585266 C91.04874268 344.2842511 91.79639893 344.27264954 92.56671143 344.26069641 C73.90872981 364.26916051 41.35454045 373.58122804 14.83233643 374.67475891 C12.16029488 374.75334837 9.48908274 374.82390748 6.81671143 374.88569641 C5.42606534 374.92400086 4.0354398 374.96305912 2.64483643 375.00288391 C-0.71441314 375.0961964 -4.0736706 375.18198536 -7.43328857 375.26069641 C25.63098837 402.64035243 77.37877084 407.96252918 118.60601807 404.31538391 C163.77887244 399.70796967 202.71293211 380.17633911 235.56671143 349.26069641 C236.55477783 348.3364386 236.55477783 348.3364386 237.56280518 347.39350891 C251.94855603 333.5061097 263.42391244 315.94582265 272.56671143 298.26069641 C272.94424561 297.53688782 273.32177979 296.81307922 273.71075439 296.06733704 C287.53496374 269.24199496 294.83096774 239.77498561 294.62921143 209.63569641 C294.62244385 207.70016907 294.62244385 207.70016907 294.61553955 205.72554016 C294.60385437 202.57054266 294.58747187 199.41564504 294.56671143 196.26069641 C295.16870361 195.97492737 295.7706958 195.68915833 296.39093018 195.39472961 C304.64674867 191.09173625 311.83683891 183.25688365 318.12921143 176.51069641 C318.61712158 175.99273499 319.10503174 175.47477356 319.60772705 174.94111633 C322.90317096 171.31762179 325.25974758 167.581504 327.56671143 163.26069641 C324.26428905 163.88040302 321.08365512 164.65279754 317.87139893 165.63569641 C299.25070329 171.22002198 299.25070329 171.22002198 290.56671143 171.26069641 C291.11198486 170.93198547 291.6572583 170.60327454 292.21905518 170.26460266 C305.69210428 161.76621784 314.33224932 150.24881462 319.56671143 135.26069641 C315.64524632 136.48351886 311.9415572 137.95159163 308.21270752 139.67256165 C301.74874519 142.64508185 295.26406207 145.17102213 288.44171143 147.19819641 C287.74392578 147.40936096 287.04614014 147.62052551 286.32720947 147.83808899 C282.32108756 148.97930311 278.71737316 149.82616578 274.56671143 149.26069641 C272.35577393 147.57319641 272.35577393 147.57319641 270.19171143 145.26069641 C256.81549952 132.48883143 239.97256764 128.7635367 221.99835205 128.9108429 C201.99966018 129.39578831 186.10009228 138.08789587 172.37921143 152.44819641 Z " fill="#FFFFFF" transform="translate(96.43328857421875,-0.2606964111328125)"/>
</svg>
