<?xml version="1.0" encoding="UTF-8"?>
<svg version="1.1" xmlns="http://www.w3.org/2000/svg" width="512" height="512">
<path d="M0 0 C1.45108658 0.00273422 1.45108658 0.00273422 2.93148804 0.00552368 C17.26440977 0.05095174 31.21023917 0.55983928 45.3125 3.3125 C46.65803955 3.55395752 46.65803955 3.55395752 48.03076172 3.80029297 C96.71843124 12.61028149 141.74255908 36.05356547 177.3125 70.3125 C178.3015332 71.26068604 178.3015332 71.26068604 179.31054688 72.22802734 C188.79880305 81.37247479 197.5387044 90.66984009 205.3125 101.3125 C206.17056152 102.46355017 207.02863451 103.61459177 207.88671875 104.765625 C213.92427396 112.95525981 219.30707302 121.45788276 224.3125 130.3125 C224.7146875 131.01971191 225.116875 131.72692383 225.53125 132.45556641 C238.54775099 155.57510937 247.281052 180.72419753 252.625 206.6875 C252.77235596 207.39801514 252.91971191 208.10853027 253.0715332 208.84057617 C256.05794017 224.48291051 256.68730954 240.11926093 256.625 256 C256.62226578 257.45108658 256.62226578 257.45108658 256.61947632 258.93148804 C256.57404826 273.26440977 256.06516072 287.21023917 253.3125 301.3125 C253.15152832 302.20952637 252.99055664 303.10655273 252.82470703 304.03076172 C244.01471851 352.71843124 220.57143453 397.74255908 186.3125 433.3125 C185.68037598 433.97185547 185.04825195 434.63121094 184.39697266 435.31054688 C175.25252521 444.79880305 165.95515991 453.5387044 155.3125 461.3125 C154.16144983 462.17056152 153.01040823 463.02863451 151.859375 463.88671875 C143.66974019 469.92427396 135.16711724 475.30707302 126.3125 480.3125 C125.60528809 480.7146875 124.89807617 481.116875 124.16943359 481.53125 C101.04989063 494.54775099 75.90080247 503.281052 49.9375 508.625 C49.22698486 508.77235596 48.51646973 508.91971191 47.78442383 509.0715332 C32.14208949 512.05794017 16.50573907 512.68730954 0.625 512.625 C-0.34239105 512.62317719 -1.3097821 512.62135437 -2.30648804 512.61947632 C-16.63940977 512.57404826 -30.58523917 512.06516072 -44.6875 509.3125 C-45.58452637 509.15152832 -46.48155273 508.99055664 -47.40576172 508.82470703 C-96.09343124 500.01471851 -141.11755908 476.57143453 -176.6875 442.3125 C-177.34685547 441.68037598 -178.00621094 441.04825195 -178.68554688 440.39697266 C-188.17380305 431.25252521 -196.9137044 421.95515991 -204.6875 411.3125 C-205.54556152 410.16144983 -206.40363451 409.01040823 -207.26171875 407.859375 C-213.29927396 399.66974019 -218.68207302 391.16711724 -223.6875 382.3125 C-224.0896875 381.60528809 -224.491875 380.89807617 -224.90625 380.16943359 C-237.92275099 357.04989063 -246.656052 331.90080247 -252 305.9375 C-252.22103394 304.87172729 -252.22103394 304.87172729 -252.4465332 303.78442383 C-255.43294017 288.14208949 -256.06230954 272.50573907 -256 256.625 C-255.99817719 255.65760895 -255.99635437 254.6902179 -255.99447632 253.69351196 C-255.94904826 239.36059023 -255.44016072 225.41476083 -252.6875 211.3125 C-252.44604248 209.96696045 -252.44604248 209.96696045 -252.19970703 208.59423828 C-243.38971851 159.90656876 -219.94643453 114.88244092 -185.6875 79.3125 C-185.05537598 78.65314453 -184.42325195 77.99378906 -183.77197266 77.31445312 C-174.62752521 67.82619695 -165.33015991 59.0862956 -154.6875 51.3125 C-153.53644983 50.45443848 -152.38540823 49.59636549 -151.234375 48.73828125 C-143.04474019 42.70072604 -134.54211724 37.31792698 -125.6875 32.3125 C-124.98028809 31.9103125 -124.27307617 31.508125 -123.54443359 31.09375 C-100.42489063 18.07724901 -75.27580247 9.343948 -49.3125 4 C-48.24672729 3.77896606 -48.24672729 3.77896606 -47.15942383 3.5534668 C-31.51708949 0.56705983 -15.88073907 -0.06230954 0 0 Z M15.3125 33.3125 C15.3125 66.6425 15.3125 99.9725 15.3125 134.3125 C36.01792175 134.36366657 36.01792175 134.36366657 56.625 133.4375 C57.97719192 133.34749354 59.32940594 133.25781867 60.68164062 133.16845703 C71.24979851 132.45423198 81.78759316 131.50161207 92.3125 130.3125 C84.93665302 101.7223122 69.13255296 74.16344325 48.3125 53.3125 C47.52617187 52.51457031 46.73984375 51.71664062 45.9296875 50.89453125 C41.23210224 46.39074076 36.21564264 42.76677152 30.6875 39.375 C30.0780957 38.99706299 29.46869141 38.61912598 28.84082031 38.22973633 C28.24108398 37.8767749 27.64134766 37.52381348 27.0234375 37.16015625 C26.50056152 36.85086182 25.97768555 36.54156738 25.43896484 36.22290039 C22.21028755 34.84061134 18.71976975 34.16431744 15.3125 33.3125 Z M-48.6875 54.3125 C-49.27789062 54.83972656 -49.86828125 55.36695312 -50.4765625 55.91015625 C-69.73559964 73.75443 -83.74849628 102.70158847 -91.6875 127.3125 C-91.6875 127.9725 -91.6875 128.6325 -91.6875 129.3125 C-76.02282465 131.57437325 -60.31183025 133.18482268 -44.5 133.9375 C-43.27494751 133.99756226 -43.27494751 133.99756226 -42.02514648 134.05883789 C-33.23318098 134.42806104 -24.51002055 134.3125 -15.6875 134.3125 C-15.6875 100.9825 -15.6875 67.6525 -15.6875 33.3125 C-27.6530664 33.3125 -40.74995856 46.72309635 -48.6875 54.3125 Z M-135.6875 76.3125 C-136.50347656 76.93511719 -137.31945312 77.55773437 -138.16015625 78.19921875 C-150.68625415 87.98585309 -164.1656142 99.5072053 -173.6875 112.3125 C-173.6875 112.9725 -173.6875 113.6325 -173.6875 114.3125 C-157.17057392 118.93953964 -140.58819938 122.40363526 -123.6875 125.3125 C-121.4752552 120.49650277 -119.39966632 115.64988121 -117.49609375 110.703125 C-110.07111281 91.41259505 -101.2845175 73.43832817 -89.6875 56.3125 C-88.49972245 54.52101732 -87.31218625 52.72937458 -86.125 50.9375 C-85.31375338 49.72832482 -84.50181903 48.5196082 -83.6875 47.3125 C-99.86399671 47.3125 -123.15767019 66.71476765 -135.6875 76.3125 Z M84.3125 47.3125 C84.62960937 47.7765625 84.94671875 48.240625 85.2734375 48.71875 C86.97398462 51.23668717 88.64632242 53.77166233 90.3125 56.3125 C90.85124756 57.13331055 90.85124756 57.13331055 91.40087891 57.97070312 C102.91345881 75.62821422 111.97490841 93.91591164 119.31591797 113.66943359 C120.9149748 117.91034228 122.61081792 122.11191565 124.3125 126.3125 C151.64631966 123.74172353 151.64631966 123.74172353 175.3125 114.3125 C164.19377393 99.73461471 151.06813122 87.14569473 136.3125 76.3125 C135.1835548 75.46489563 134.05464857 74.61723934 132.92578125 73.76953125 C110.23598525 56.14854272 110.23598525 56.14854272 84.3125 47.3125 Z M-193.6875 140.3125 C-207.03507188 164.66379409 -216.89502054 189.38058556 -222 216.75 C-222.15952148 217.60070068 -222.31904297 218.45140137 -222.48339844 219.32788086 C-223.76745859 226.70980943 -224.14585072 233.72941013 -224.6875 241.3125 C-197.6275 241.3125 -170.5675 241.3125 -142.6875 241.3125 C-142.07719517 237.04036617 -141.54362884 233.04312958 -141.29296875 228.77734375 C-139.71958981 204.03777835 -136.44145813 179.63860491 -131.6875 155.3125 C-139.92454772 153.20121899 -148.18993478 151.29944521 -156.5 149.5 C-168.98692813 146.76617034 -181.35003556 143.65236779 -193.6875 140.3125 Z M185.93359375 143.88671875 C184.61809838 144.2261252 183.3025015 144.56513836 181.98681641 144.90380859 C181.29533508 145.08288757 180.60385376 145.26196655 179.89141846 145.44647217 C167.36345976 148.68478077 154.86820855 151.55192097 142.11108398 153.7644043 C140.6059021 154.03184448 140.6059021 154.03184448 139.0703125 154.3046875 C137.75764404 154.52680908 137.75764404 154.52680908 136.41845703 154.75341797 C134.11366419 155.17667055 134.11366419 155.17667055 132.3125 157.3125 C132.45726348 159.77069329 132.45726348 159.77069329 133.10546875 162.60546875 C133.32227295 163.69859375 133.53907715 164.79171875 133.76245117 165.91796875 C134.00584229 167.10003906 134.2492334 168.28210938 134.5 169.5 C138.11772351 188.06828181 140.42336898 206.47835271 141.66674805 225.35546875 C141.73804932 226.43570313 141.80935059 227.5159375 141.8828125 228.62890625 C141.94227051 229.58224854 142.00172852 230.53559082 142.06298828 231.51782227 C142.32630197 234.46709014 142.82571476 237.39178857 143.3125 240.3125 C170.3725 240.3125 197.4325 240.3125 225.3125 240.3125 C223.92006068 224.6281879 223.92006068 224.6281879 221.25 209.25 C221.04012451 208.31430176 220.83024902 207.37860352 220.61401367 206.41455078 C215.30281968 183.85448088 207.00482008 162.32589913 195.3125 142.3125 C191.91437542 142.3125 189.22439101 143.02577429 185.93359375 143.88671875 Z M-100.6875 159.3125 C-108.10512639 185.78711333 -110.38401067 212.93922397 -111.6875 240.3125 C-80.0075 240.3125 -48.3275 240.3125 -15.6875 240.3125 C-15.6875 215.5625 -15.6875 190.8125 -15.6875 165.3125 C-21.75125 165.044375 -27.815 164.77625 -34.0625 164.5 C-56.34801629 163.45801 -78.49367005 161.56423742 -100.6875 159.3125 Z M91.0390625 160.80078125 C89.7607959 160.92928467 88.4825293 161.05778809 87.16552734 161.19018555 C86.47883972 161.26119476 85.7921521 161.33220398 85.08465576 161.40536499 C62.20602734 163.74564596 39.29073315 164.43905839 16.3125 165.3125 C16.3125 190.0625 16.3125 214.8125 16.3125 240.3125 C47.9925 240.3125 79.6725 240.3125 112.3125 240.3125 C110.5766543 213.4068916 107.98994594 187.52538869 102.3125 161.3125 C98.35196683 160.31571536 95.08918789 160.36524878 91.0390625 160.80078125 Z M-224.6875 271.3125 C-223.81317226 283.69384665 -223.81317226 283.69384665 -222 295.875 C-221.73944824 297.27190063 -221.73944824 297.27190063 -221.47363281 298.69702148 C-216.867688 322.37532965 -209.20547666 348.07119395 -195.6875 368.3125 C-192.68326534 369.81461733 -190.76053684 368.72360051 -187.546875 367.87109375 C-186.248745 367.53367296 -184.95056565 367.19644202 -183.65234375 366.859375 C-182.9651123 366.67826172 -182.27788086 366.49714844 -181.56982422 366.31054688 C-169.3465333 363.09727965 -157.09164616 360.23607874 -144.6875 357.8125 C-144.02649292 357.68326141 -143.36548584 357.55402283 -142.68444824 357.42086792 C-139.02085158 356.70713933 -135.35524311 356.00458718 -131.6875 355.3125 C-131.89113159 354.17542603 -131.89113159 354.17542603 -132.09887695 353.01538086 C-136.07327024 330.70798429 -139.48714905 308.54027839 -141.04174805 285.91333008 C-141.14869995 284.36101685 -141.14869995 284.36101685 -141.2578125 282.77734375 C-141.31727051 281.865896 -141.37672852 280.95444824 -141.43798828 280.01538086 C-141.70738598 277.09708153 -142.20569467 274.20333201 -142.6875 271.3125 C-169.7475 271.3125 -196.8075 271.3125 -224.6875 271.3125 Z M-111.6875 272.3125 C-110.94554472 288.53286242 -110.94554472 288.53286242 -109.375 304.625 C-109.18369507 306.171875 -109.18369507 306.171875 -108.98852539 307.75 C-107.80754284 330.29315524 -107.80754284 330.29315524 -100.6875 350.3125 C-92.91302638 350.639665 -85.21118646 349.82874721 -77.47543335 349.14419556 C-56.56369996 347.30523153 -35.65933308 346.27587042 -14.6875 345.3125 C-14.6875 321.2225 -14.6875 297.1325 -14.6875 272.3125 C-46.6975 272.3125 -78.7075 272.3125 -111.6875 272.3125 Z M16.3125 272.3125 C16.3125 296.4025 16.3125 320.4925 16.3125 345.3125 C22.77025211 345.89956837 29.14566993 346.46432362 35.609375 346.7421875 C37.14658698 346.81416391 38.68377697 346.88661126 40.22094727 346.95947266 C41.40637619 347.01497284 41.40637619 347.01497284 42.61575317 347.07159424 C59.6466952 347.87837338 76.55360424 349.2114313 93.50219727 351.06884766 C96.12363829 351.29612575 98.68304425 351.35772628 101.3125 351.3125 C108.53804422 325.52345654 110.97946402 298.97321958 112.3125 272.3125 C80.6325 272.3125 48.9525 272.3125 16.3125 272.3125 Z M143.3125 272.3125 C142.60643973 275.84280135 142.13355904 278.89222062 141.91796875 282.43359375 C140.42369155 305.05862294 137.85803008 327.52333072 133.046875 349.69921875 C132.2129144 353.18795661 132.2129144 353.18795661 132.3125 356.3125 C133.20630371 356.48789307 134.10010742 356.66328613 135.02099609 356.84399414 C151.67131841 360.1333545 168.18628558 363.55046353 184.52685547 368.17797852 C186.01209717 368.59841431 186.01209717 368.59841431 187.52734375 369.02734375 C188.38448975 369.27605225 189.24163574 369.52476074 190.12475586 369.78100586 C192.42313749 370.43053743 192.42313749 370.43053743 195.3125 370.3125 C208.37587223 346.71822898 217.69384645 322.37806055 222.625 295.8125 C222.78452148 294.95342041 222.94404297 294.09434082 223.10839844 293.20922852 C224.32317271 286.19880105 224.76022126 279.49212365 225.3125 272.3125 C198.2525 272.3125 171.1925 272.3125 143.3125 272.3125 Z M16.3125 376.3125 C16.3125 409.6425 16.3125 442.9725 16.3125 477.3125 C32.07120384 472.05959872 44.90761542 463.31315243 55.3125 450.3125 C56.14394531 449.31734375 56.97539062 448.3221875 57.83203125 447.296875 C70.68790748 431.69269 92.3125 402.0390992 92.3125 381.3125 C75.35097231 379.37681051 58.42551554 377.97038744 41.375 377.125 C40.10038406 377.06122162 40.10038406 377.06122162 38.80001831 376.99615479 C36.35771108 376.87556234 33.91526672 376.75880607 31.47265625 376.64453125 C30.38991928 376.59319283 30.38991928 376.59319283 29.28530884 376.54081726 C24.94852286 376.34776281 20.66059591 376.3125 16.3125 376.3125 Z M-73.25 378.8125 C-74.05565399 378.87821198 -74.86130798 378.94392395 -75.69137573 379.0116272 C-77.98354456 379.20032513 -80.27503871 379.39558155 -82.56640625 379.59375 C-83.2578775 379.65104782 -83.94934875 379.70834564 -84.66177368 379.76737976 C-88.29502111 380.07044365 -88.29502111 380.07044365 -91.6875 381.3125 C-84.32979929 411.81630084 -65.67655279 439.54188151 -43.6875 461.3125 C-43.18347656 461.81394531 -42.67945313 462.31539063 -42.16015625 462.83203125 C-38.35574571 466.32028579 -34.13969908 468.97892248 -29.6875 471.5625 C-29.10621338 471.90385986 -28.52492676 472.24521973 -27.92602539 472.59692383 C-23.77364737 474.9404721 -20.44790337 475.95238475 -15.6875 477.3125 C-15.6875 443.9825 -15.6875 410.6525 -15.6875 376.3125 C-34.94815447 376.3125 -54.06222744 377.2223531 -73.25 378.8125 Z M-133.2265625 386.3515625 C-134.52198975 386.60019043 -135.81741699 386.84881836 -137.15209961 387.10498047 C-138.53903597 387.38180531 -139.92583404 387.65932385 -141.3125 387.9375 C-142.00747589 388.07399963 -142.70245178 388.21049927 -143.41848755 388.35113525 C-154.32655256 390.49537621 -165.06467272 393.01927783 -175.6875 396.3125 C-171.43107276 402.99834975 -166.12563796 408.58264736 -160.6875 414.3125 C-159.36492187 415.71628906 -159.36492187 415.71628906 -158.015625 417.1484375 C-151.09900606 424.2901535 -143.64286902 430.37643691 -135.6875 436.3125 C-135.12160156 436.73917969 -134.55570313 437.16585937 -133.97265625 437.60546875 C-121.53043083 446.94432155 -108.31376308 454.72958654 -94.3125 461.5 C-93.4975708 461.89904541 -92.6826416 462.29809082 -91.84301758 462.70922852 C-91.0827124 463.06686279 -90.32240723 463.42449707 -89.5390625 463.79296875 C-88.86697754 464.11160889 -88.19489258 464.43024902 -87.50244141 464.75854492 C-85.48344772 465.56636984 -85.48344772 465.56636984 -82.6875 464.3125 C-83.30496094 463.47589844 -83.92242187 462.63929688 -84.55859375 461.77734375 C-99.90008113 440.79546886 -112.25227778 417.67628523 -120.15258789 392.85131836 C-120.43352295 392.00061768 -120.71445801 391.14991699 -121.00390625 390.2734375 C-121.35110718 389.15654541 -121.35110718 389.15654541 -121.70532227 388.01708984 C-122.54829937 386.18248262 -122.54829937 386.18248262 -124.3840332 385.5 C-127.49118354 385.24708093 -130.16469895 385.7598878 -133.2265625 386.3515625 Z M123.3125 386.3125 C122.99780762 387.20666626 122.99780762 387.20666626 122.67675781 388.11889648 C113.00266446 415.3499658 100.9936649 441.31178693 83.3125 464.3125 C87.00155212 465.54218404 87.65401774 464.98235229 91.07421875 463.35546875 C92.02071289 462.90727783 92.96720703 462.45908691 93.94238281 461.99731445 C94.95139648 461.50320068 95.96041016 461.00908691 97 460.5 C98.55025879 459.74819458 98.55025879 459.74819458 100.13183594 458.98120117 C113.01785863 452.62520348 124.90706245 445.04895841 136.3125 436.3125 C137.53646484 435.37857422 137.53646484 435.37857422 138.78515625 434.42578125 C151.92002059 424.16351799 165.90772134 412.16173102 175.3125 398.3125 C172.99768057 395.99768057 171.74209666 395.72983621 168.60546875 394.9453125 C167.1510437 394.57913818 167.1510437 394.57913818 165.66723633 394.20556641 C164.62204834 393.95210449 163.57686035 393.69864258 162.5 393.4375 C160.89838013 393.04377197 160.89838013 393.04377197 159.2644043 392.64208984 C152.08287723 390.90654971 144.88000548 389.33376343 137.625 387.9375 C136.32695435 387.68637451 136.32695435 387.68637451 135.00268555 387.43017578 C131.02789697 386.69482209 127.36822866 386.23718882 123.3125 386.3125 Z " fill="#FFFFFF" transform="translate(255.6875,-0.3125)"/>
</svg>
